<?xml version="1.0" standalone="no"?>
<!DOCTYPE svg PUBLIC "-//W3C//DTD SVG 20010904//EN"
 "http://www.w3.org/TR/2001/REC-SVG-20010904/DTD/svg10.dtd">
<svg version="1.0" xmlns="http://www.w3.org/2000/svg"
 width="166.000000pt" height="110.000000pt" viewBox="0 0 166.000000 110.000000"
 preserveAspectRatio="xMidYMid meet">

<g transform="translate(0.000000,110.000000) scale(0.100000,-0.100000)"
fill="#000000" stroke="none">
<path d="M1048 1059 c-22 -13 -24 -67 -3 -75 11 -5 15 -22 15 -68 0 -56 -3
-65 -30 -91 -27 -26 -30 -35 -30 -92 0 -35 -4 -63 -10 -63 -16 0 -30 37 -30
79 0 50 -26 71 -87 71 l-43 0 0 -290 c0 -279 -1 -290 -20 -300 -30 -16 -27
-67 4 -81 35 -16 66 3 66 42 0 17 -6 32 -15 35 -12 5 -15 28 -15 120 0 119 2
124 44 108 25 -10 22 -90 -4 -104 -30 -16 -27 -64 6 -78 37 -18 64 0 64 42 0
21 -6 36 -15 40 -10 3 -15 19 -15 46 0 43 4 46 44 30 l26 -10 0 -130 c0 -119
-2 -131 -20 -142 -30 -19 -27 -72 4 -86 48 -22 93 51 51 82 -13 9 -15 33 -13
136 l3 124 38 -33 c74 -66 124 -190 111 -278 l-6 -43 181 0 181 0 0 86 c0 111
-7 124 -69 124 -34 0 -56 6 -75 21 -35 28 -34 49 3 49 17 0 33 5 36 10 4 6
-11 10 -38 10 -41 0 -46 3 -55 29 -17 48 -6 53 110 49 81 -2 104 0 101 10 -4
8 -34 12 -101 12 l-95 0 21 23 c40 43 30 76 -47 150 -40 39 -78 67 -90 67 -12
0 -39 -16 -61 -36 -36 -32 -60 -38 -60 -13 0 5 16 26 35 48 32 35 35 44 35 98
0 42 5 64 15 73 8 7 15 25 15 40 0 35 -40 56 -70 38 -27 -17 -27 -69 0 -86 15
-9 20 -23 20 -60 0 -42 -5 -53 -35 -82 -24 -23 -35 -43 -35 -63 0 -24 -3 -28
-17 -22 -10 4 -26 10 -35 12 -15 4 -18 17 -18 77 0 67 2 74 30 101 27 26 30
35 30 92 0 52 3 64 20 73 27 14 27 65 1 80 -24 12 -31 12 -53 -1z m50 -33 c5
-24 -10 -38 -31 -30 -17 6 -23 35 -10 48 12 12 38 1 41 -18z m92 -127 c0 -27
-28 -35 -48 -15 -16 16 -16 18 1 31 24 17 47 9 47 -16z m-243 -575 c4 -11 -1
-22 -12 -31 -16 -11 -21 -11 -33 1 -8 8 -12 22 -9 30 8 21 46 21 54 0z m-87
-120 c11 -12 10 -18 -3 -31 -8 -9 -23 -13 -31 -10 -19 8 -21 43 -3 50 20 9 24
8 37 -9z m170 -95 c0 -27 -28 -35 -48 -15 -16 16 -16 18 1 31 24 17 47 9 47
-16z"/>
<path d="M200 508 c-87 -109 -160 -296 -160 -410 l0 -48 88 0 89 0 12 66 c17
92 46 165 97 241 24 36 44 69 44 72 0 4 -29 35 -64 70 l-63 63 -43 -54z"/>
<path d="M371 349 c-57 -78 -101 -193 -101 -266 l0 -33 89 0 88 0 6 38 c5 40
33 107 64 154 l18 28 -60 60 c-33 33 -63 60 -67 60 -4 0 -21 -18 -37 -41z"/>
<path d="M540 198 c-18 -29 -50 -118 -50 -140 0 -4 11 -8 24 -8 20 0 27 10 45
63 26 73 31 108 14 114 -7 3 -22 -10 -33 -29z"/>
</g>
</svg>
